SplineFontDB: 3.0
FontName: ListingOne
FullName: Listing One
FamilyName: ListingOne
Weight: Regular
Copyright: Copyright (c) 2016, chris
UComments: "2016-11-22: Created with FontForge (http://fontforge.org)"
Version: 001.000
ItalicAngle: 0
UnderlinePosition: -24
UnderlineWidth: 8
Ascent: 206
Descent: 50
InvalidEm: 0
LayerCount: 2
Layer: 0 0 "Back" 1
Layer: 1 0 "Fore" 0
XUID: [1021 226 -69582396 20756]
StyleMap: 0x0000
FSType: 0
OS2Version: 0
OS2_WeightWidthSlopeOnly: 0
OS2_UseTypoMetrics: 1
CreationTime: 1479806616
ModificationTime: 1479940246
OS2TypoAscent: 0
OS2TypoAOffset: 1
OS2TypoDescent: 0
OS2TypoDOffset: 1
OS2TypoLinegap: 24
OS2WinAscent: 0
OS2WinAOffset: 1
OS2WinDescent: 0
OS2WinDOffset: 1
HheadAscent: 0
HheadAOffset: 1
HheadDescent: 0
HheadDOffset: 1
OS2Vendor: 'PfEd'
Lookup: 4 0 1 "'rlig' Required Ligatures in Latin lookup 0" { "'rlig' Required Ligatures in Latin lookup 0-1"  } ['rlig' ('DFLT' <'dflt' > 'latn' <'dflt' > ) ]
MarkAttachClasses: 1
DEI: 91125
Encoding: UnicodeBmp
UnicodeInterp: none
NameList: AGL For New Fonts
DisplaySize: -128
AntiAlias: 1
FitToEm: 0
WinInfo: 95 19 9
BeginPrivate: 0
EndPrivate
Grid
76 204 m 5
 116 204 l 5
 116 192 l 5
 76 192 l 5
 76 204 l 5
76 204 m 1
 36 204 l 1
 36 216 l 1
 76 216 l 1
 76 204 l 1
36 192 m 1
 36 216 l 1
 116 216 l 1
 116 192 l 1
 36 192 l 1
36 184 m 1
 116 184 l 1
 116 128 l 1
 36 128 l 1
 36 184 l 1
76 92 m 1
 140 92 l 1
 140 0 l 1
 76 0 l 1
 76 92 l 1
12 184 m 1
 76 184 l 1
 76 92 l 1
 12 92 l 1
 12 184 l 1
12 136 m 1
 12 184 l 1
 140 184 l 1
 140 136 l 1
 12 136 l 1
64 184 m 1
 88 184 l 1
 88 0 l 1
 64 0 l 1
 64 184 l 1
36 128 m 1
 116 128 l 1
 116 8 l 1
 36 8 l 1
 36 128 l 1
12 136 m 1
 140 136 l 1
 140 0 l 1
 12 0 l 1
 12 136 l 1
EndSplineSet
BeginChars: 65539 328

StartChar: n
Encoding: 110 110 0
Width: 152
VWidth: 0
Flags: HW
HStem: 128 8<59 104>
VStem: 116 24<0 108>
LayerCount: 2
Fore
SplineSet
84 136 m 7
 62 136 36 124 36 124 c 4
 36 136 l 4
 12 136 l 4
 12 0 l 4
 36 0 l 4
 36 108 l 6
 36 108 40 116 48 120 c 4
 52 122 64 128 76 128 c 4
 88 128 94 128 104 124 c 4
 116 120 116 108 116 108 c 6
 116 0 l 4
 140 0 l 4
 140 0 140 64 140 104 c 4
 140 128 106 136 84 136 c 7
EndSplineSet
EndChar

StartChar: o
Encoding: 111 111 1
AltUni2: 0003bf.ffffffff.0
Width: 152
VWidth: 0
Flags: HW
HStem: -2 8<54 98> 130 8<54 98>
VStem: 12 24<19 117> 116 24<19 117>
LayerCount: 2
Fore
SplineSet
76 138 m 0
 104 138 140 130 140 102 c 0
 140 74 140 62 140 34 c 0
 140 6 104 -2 76 -2 c 0
 48 -2 12 6 12 34 c 0
 12 62 12 74 12 102 c 0
 12 130 48 138 76 138 c 0
76 130 m 0
 56 130 36 122 36 102 c 0
 36 74 36 62 36 34 c 0
 36 14 56 6 76 6 c 0
 96 6 116 14 116 34 c 0
 116 62 116 74 116 102 c 0
 116 122 96 130 76 130 c 0
EndSplineSet
EndChar

StartChar: dotlessi
Encoding: 305 305 3
Width: 152
VWidth: 0
Flags: HW
HStem: 0 42G<66 90> 0 42G<66 90> 128 8<38 66>
VStem: 66 24<0 128>
LayerCount: 2
Fore
SplineSet
38 136 m 5xb0
 90 136 l 5
 90 0 l 5
 66 0 l 5
 66 128 l 4
 38 128 l 4
 38 136 l 5xb0
EndSplineSet
EndChar

StartChar: p
Encoding: 112 112 4
Width: 152
VWidth: 0
Flags: HW
HStem: -2 8<54 98> 96 40G<12 36> 130 8<54 98>
VStem: 12 24<-48 4 19 117 132 136> 116 24<19 117>
LayerCount: 2
Fore
SplineSet
76 138 m 0xb8
 104 138 140 130 140 102 c 0
 140 74 140 62 140 34 c 0
 140 6 104 -2 76 -2 c 0
 62 -2 48 0 36 4 c 2
 36 -48 l 1
 12 -48 l 1
 12 36 l 1
 12 100 l 1
 12 136 l 1
 36 136 l 1xd8
 36 132 l 2
 36 132 62 138 76 138 c 0xb8
36 102 m 2
 36 34 l 2
 36 14 56 6 76 6 c 0
 96 6 116 14 116 34 c 0
 116 62 116 74 116 102 c 0
 116 122 96 130 76 130 c 0xb8
 56 130 36 122 36 102 c 2
EndSplineSet
EndChar

StartChar: q
Encoding: 113 113 5
Width: 152
VWidth: 0
Flags: HW
HStem: -2 8<54 98> 130 8<54 98>
VStem: 12 24<19 34 102 117> 116 24<19 36 102 117>
LayerCount: 2
Fore
SplineSet
76 138 m 4
 48 138 12 130 12 102 c 4
 12 74 12 62 12 34 c 4
 12 6 48 -2 76 -2 c 4
 90 -2 104 0 116 4 c 6
 116 -48 l 5
 140 -48 l 5
 140 36 l 5
 140 100 l 5
 140 136 l 5
 116 136 l 5
 116 132 l 6
 116 132 90 138 76 138 c 4
116 102 m 6
 116 34 l 6
 116 14 96 6 76 6 c 4
 56 6 36 14 36 34 c 4
 36 62 36 74 36 102 c 4
 36 122 56 130 76 130 c 4
 96 130 116 122 116 102 c 6
EndSplineSet
EndChar

StartChar: d
Encoding: 100 100 6
Width: 152
VWidth: 0
Flags: HW
HStem: -2 8<54 98> 0 42G<116 140> 0 42G<116 140> 128 8<54 98> 144 40G<116 140>
VStem: 12 24<19 115> 116 24<0 4 19 115 130 184>
LayerCount: 2
Fore
SplineSet
76 -2 m 0x9e
 48 -2 12 6 12 34 c 0
 12 62 12 72 12 100 c 0
 12 128 48 136 76 136 c 0
 90 136 104 134 116 130 c 2
 116 184 l 1
 140 184 l 1
 140 100 l 1
 140 34 l 1
 140 0 l 1
 116 0 l 1x5e
 116 4 l 2
 104 0 90 -2 76 -2 c 0x9e
116 34 m 2
 116 100 l 2
 116 120 96 128 76 128 c 0
 56 128 36 120 36 100 c 0
 36 72 36 62 36 34 c 0
 36 14 56 6 76 6 c 0x9e
 96 6 116 14 116 34 c 2
EndSplineSet
EndChar

StartChar: b
Encoding: 98 98 7
Width: 152
VWidth: 0
Flags: HW
HStem: -2 8<54 98> 0 42G<12 36> 0 42G<12 36> 128 8<54 98> 144 40G<12 36>
VStem: 12 24<0 4 19 115 130 184> 116 24<19 115>
LayerCount: 2
Fore
SplineSet
76 -2 m 0x9e
 62 -2 36 4 36 4 c 2
 36 0 l 1
 12 0 l 1x5e
 12 36 l 1
 12 100 l 1
 12 184 l 1
 36 184 l 1
 36 130 l 2
 48 134 62 136 76 136 c 0
 104 136 140 128 140 100 c 0
 140 72 140 62 140 34 c 0
 140 6 104 -2 76 -2 c 0x9e
36 34 m 2
 36 14 56 6 76 6 c 0x9e
 96 6 116 14 116 34 c 0
 116 62 116 72 116 100 c 0
 116 120 96 128 76 128 c 0
 56 128 36 120 36 100 c 2
 36 34 l 2
EndSplineSet
EndChar

StartChar: a
Encoding: 97 97 8
Width: 152
VWidth: 0
Flags: HW
HStem: -2 8<54 98> 0 42G<116 140> 0 42G<116 140> 130 8<53 99>
VStem: 12 24<19 55 104 118> 116 24<0 4 19 84 92 118>
LayerCount: 2
Fore
SplineSet
116 84 m 1x9c
 48 60 l 2
 44 58 36 52 36 46 c 2
 36 34 l 2
 36 14 56 6 76 6 c 0
 96 6 116 14 116 34 c 2
 116 38 l 1
 116 84 l 1x9c
12 104 m 1
 12 132 48 138 76 138 c 0
 104 138 140 132 140 104 c 2
 140 38 l 1
 140 34 l 1
 140 0 l 1
 116 0 l 1x5c
 116 4 l 1
 104 0 90 -2 76 -2 c 0
 48 -2 12 6 12 34 c 2
 12 44 l 2
 12 50 20 58 24 60 c 2
 116 92 l 1
 116 104 l 2
 116 124 96 130 76 130 c 0
 56 130 36 124 36 104 c 1
 12 104 l 1
EndSplineSet
EndChar

StartChar: s
Encoding: 115 115 10
Width: 152
VWidth: 0
Flags: HW
HStem: -2 8<53 97> 130 8<46 99>
VStem: 12 24<18 32 97 124> 116 24<19 50 104 118>
LayerCount: 2
Fore
SplineSet
12 110 m 3
 12 138 48 138 76 138 c 0
 104 138 140 132 140 104 c 0
 116 104 l 0
 116 124 96 130 76 130 c 0
 56 130 36 130 36 110 c 3
 36 94 52 88 76 80 c 0
 102 70 140 62 140 34 c 3
 140 6 104 -2 76 -2 c 0
 48 -2 12 4 12 32 c 4
 36 32 l 4
 36 12 56 6 76 6 c 0
 96 6 116 16 116 34 c 3
 116 54 96 62 76 70 c 0
 50 78 12 90 12 110 c 3
EndSplineSet
EndChar

StartChar: c
Encoding: 99 99 11
Width: 152
VWidth: 0
Flags: HW
HStem: -2 8<53 99> 130 8<53 99>
VStem: 12 24<18 118> 116 24<18 32 104 118>
LayerCount: 2
Fore
SplineSet
140 32 m 0
 140 4 104 -2 76 -2 c 0
 48 -2 12 4 12 32 c 0
 12 60 12 76 12 104 c 0
 12 132 48 138 76 138 c 0
 104 138 140 132 140 104 c 0
 116 104 l 0
 116 124 96 130 76 130 c 0
 56 130 36 124 36 104 c 0
 36 76 36 60 36 32 c 0
 36 12 56 6 76 6 c 0
 96 6 116 12 116 32 c 0
 140 32 l 0
EndSplineSet
EndChar

StartChar: e
Encoding: 101 101 12
Width: 152
VWidth: 0
Flags: HW
HStem: -2 8<53 99> 72 8<36 116> 130 8<54 98>
VStem: 12 24<18 72 80 117> 116 24<18 32 80 117>
LayerCount: 2
Fore
SplineSet
140 32 m 1
 140 4 104 -2 76 -2 c 0
 48 -2 12 4 12 32 c 0
 12 60 12 74 12 102 c 0
 12 130 48 138 76 138 c 0
 104 138 140 130 140 102 c 2
 140 80 l 1
 140 72 l 1
 36 72 l 1
 36 32 l 2
 36 12 56 6 76 6 c 0
 96 6 116 12 116 32 c 1
 140 32 l 1
36 80 m 1
 116 80 l 1
 116 102 l 2
 116 122 96 130 76 130 c 0
 56 130 36 122 36 102 c 2
 36 80 l 1
EndSplineSet
EndChar

StartChar: h
Encoding: 104 104 13
Width: 152
VWidth: 0
Flags: HW
HStem: 128 8<54 98>
VStem: 12 24<100 115> 116 24<100 115>
LayerCount: 2
Fore
SplineSet
36 100 m 2
 36 120 56 128 76 128 c 0
 96 128 116 120 116 100 c 0
 116 72 116 28 116 0 c 0
 140 0 l 0
 140 28 140 72 140 100 c 0
 140 128 104 136 76 136 c 0
 62 136 48 134 36 130 c 2
 36 184 l 1
 12 184 l 1
 12 100 l 1
 12 36 l 1
 12 0 l 1
 36 0 l 1
 36 100 l 2
EndSplineSet
EndChar

StartChar: v
Encoding: 118 118 14
Width: 152
VWidth: 0
Flags: HW
HStem: 0 42G<57 100> 0 42G<57 100> 96 40G<12 53 116 140>
LayerCount: 2
Fore
SplineSet
12 136 m 1xa0
 34 136 l 1
 86 24 l 5
 132 136 l 1
 140 136 l 1
 84 0 l 5
 76 0 l 5
 12 136 l 1xa0
EndSplineSet
EndChar

StartChar: l
Encoding: 108 108 15
Width: 152
VWidth: 0
Flags: HW
HStem: 0 8<92 118> 176 8<36 64>
VStem: 64 24<11 176>
LayerCount: 2
Fore
SplineSet
64 24 m 7
 64 98 64 176 64 176 c 5
 36 176 l 5
 36 184 l 5
 88 184 l 5
 88 184 88 100 88 24 c 7
 88 14 94 8 100 8 c 7
 112 8 118 8 118 8 c 5
 118 0 l 5
 118 0 102 0 88 0 c 7
 72 0 64 8 64 24 c 7
EndSplineSet
EndChar

StartChar: u
Encoding: 117 117 16
Width: 152
VWidth: 0
Flags: HW
HStem: 0 8<48 93>
VStem: 12 24<28 136>
LayerCount: 2
Fore
SplineSet
68 0 m 3
 90 0 116 12 116 12 c 0
 116 0 l 0
 140 0 l 0
 140 136 l 0
 116 136 l 0
 116 28 l 2
 116 28 112 20 104 16 c 0
 100 14 88 8 76 8 c 0
 64 8 58 8 48 12 c 0
 36 16 36 28 36 28 c 2
 36 136 l 0
 12 136 l 0
 12 136 12 72 12 32 c 0
 12 8 46 0 68 0 c 3
EndSplineSet
EndChar

StartChar: t
Encoding: 116 116 17
Width: 152
VWidth: 0
Flags: HW
HStem: 0 8<71 89>
VStem: 40 24<15 36> 92 24<10 28>
LayerCount: 2
Fore
SplineSet
40 136 m 1
 12 136 l 1
 12 128 l 1
 40 128 l 1
 40 36 l 2
 40 8 62 0 78 0 c 0
 96 0 116 0 116 28 c 1
 92 28 l 1
 92 6 84 8 78 8 c 0
 72 8 64 16 64 36 c 2
 64 128 l 1
 92 128 l 1
 92 136 l 1
 64 136 l 1
 64 184 l 1
 40 184 l 1
 40 136 l 1
EndSplineSet
EndChar

StartChar: r
Encoding: 114 114 18
Width: 152
VWidth: 0
Flags: HW
HStem: 128 8<59 104>
LayerCount: 2
Fore
SplineSet
84 136 m 3
 62 136 36 124 36 124 c 0
 36 136 l 0
 12 136 l 0
 12 0 l 0
 36 0 l 0
 36 108 l 2
 36 108 40 116 48 120 c 0
 52 122 64 128 76 128 c 0
 88 128 94 128 104 124 c 0
 116 120 116 108 116 108 c 2
 116 104 l 0
 140 104 l 0
 140 128 106 136 84 136 c 3
EndSplineSet
EndChar

StartChar: g
Encoding: 103 103 19
Width: 152
VWidth: 0
Flags: HW
HStem: -50 8<54 98> -2 8<54 98> 130 8<54 98>
VStem: 12 24<-29 -14 19 34 102 117> 116 24<-29 -14 19 34 102 117>
LayerCount: 2
Fore
SplineSet
116 102 m 2
 116 34 l 2
 116 14 96 6 76 6 c 0
 56 6 36 14 36 34 c 2
 36 102 l 2
 36 122 56 130 76 130 c 0
 96 130 116 122 116 102 c 2
76 138 m 0
 48 138 12 130 12 102 c 2
 12 34 l 2
 12 6 48 -2 76 -2 c 0
 90 -2 104 0 116 4 c 1
 116 -14 l 2
 116 -34 96 -42 76 -42 c 0
 56 -42 36 -34 36 -14 c 1
 12 -14 l 1
 12 -42 48 -50 76 -50 c 0
 104 -50 140 -42 140 -14 c 0
 140 36 140 86 140 136 c 1
 116 136 l 1
 116 132 l 1
 116 132 90 138 76 138 c 0
EndSplineSet
EndChar

StartChar: L
Encoding: 76 76 20
Width: 152
VWidth: 0
Flags: HW
HStem: 0 8<36 140> 144 40G<12 36>
VStem: 12 24<8 184>
LayerCount: 2
Fore
SplineSet
12 184 m 1
 36 184 l 1
 36 8 l 1
 140 8 l 1
 140 0 l 1
 36 0 l 1
 12 0 l 1
 12 184 l 1
EndSplineSet
EndChar

StartChar: y
Encoding: 121 121 21
Width: 152
VWidth: 0
Flags: HW
HStem: -50 8<39 58> 96 40G<12 53 116 140>
VStem: 12 24<-40 -22>
LayerCount: 2
Fore
SplineSet
66 -40 m 6
 66 -42 60 -50 48 -50 c 7
 34 -50 12 -50 12 -22 c 1
 36 -22 l 3
 36 -40 40 -42 50 -42 c 3
 56 -42 62 -34 62 -34 c 2
 76 0 l 2
 12 136 l 1
 34 136 l 1
 86 24 l 1
 132 136 l 1
 140 136 l 1
 66 -40 l 6
EndSplineSet
EndChar

StartChar: m
Encoding: 109 109 22
Width: 152
VWidth: 0
Flags: HW
HStem: 128 8<44 59 96 110>
VStem: 12 24<108 122> 64 24<106 120> 116 24<102 121>
CounterMasks: 1 70
LayerCount: 2
Fore
SplineSet
104 128 m 3
 112 128 116 114 116 108 c 0
 116 0 l 1
 140 0 l 1
 140 102 l 2
 140 126 118 136 110 136 c 0
 98 136 86 128 84 118 c 1
 76 132 62 136 56 136 c 0
 44 136 36 124 36 124 c 1
 36 136 l 1
 12 136 l 1
 12 0 l 1
 36 0 l 1
 36 108 l 3
 36 114 42 128 52 128 c 0
 62 128 64 114 64 108 c 0
 64 0 l 1
 88 0 l 1
 88 36 88 70 88 106 c 0
 88 118 94 128 104 128 c 3
EndSplineSet
EndChar

StartChar: x
Encoding: 120 120 23
Width: 152
VWidth: 0
Flags: HW
HStem: 0 42G<12 54 88 140> 0 42G<12 54 88 140> 96 40G<12 66 93 140>
LayerCount: 2
Fore
SplineSet
12 136 m 1xa0
 36 136 l 1
 78 80 l 1
 130 136 l 1
 140 136 l 1
 84 74 l 1
 140 0 l 2
 116 0 l 2
 72 62 l 1
 22 0 l 1
 12 0 l 1
 68 68 l 1
 12 136 l 1xa0
EndSplineSet
EndChar

StartChar: z
Encoding: 122 122 24
Width: 152
VWidth: 0
Flags: HW
HStem: 0 8<42 140> 128 8<12 110>
LayerCount: 2
Fore
SplineSet
110 128 m 1
 12 128 l 1
 12 136 l 1
 116 136 l 1
 120 136 l 1
 140 136 l 1
 42 8 l 1
 140 8 l 1
 140 0 l 1
 36 0 l 1
 32 0 l 1
 12 0 l 1
 110 128 l 1
EndSplineSet
EndChar

StartChar: j
Encoding: 106 106 25
Width: 152
VWidth: 0
Flags: HW
HStem: -48 8<41 59> 128 8<38 66> 152 24<67 89>
VStem: 14 24<-38 -20> 66 24<-33 128 153 175>
LayerCount: 2
Fore
SplineSet
96 -14 m 6
 96 -42 74 -50 58 -50 c 4
 40 -50 20 -50 20 -22 c 5
 44 -22 l 5
 44 -44 52 -42 58 -42 c 4
 64 -42 72 -34 72 -14 c 6
 72 128 l 5
 44 128 l 5
 44 136 l 5
 72 136 l 5
 96 136 l 5
 96 -14 l 6
EndSplineSet
Refer: 58 46 S 1 0 0 1 8 152 2
EndChar

StartChar: f
Encoding: 102 102 26
Width: 152
VWidth: 0
Flags: HW
HStem: 0 42G<64 88> 0 42G<64 88> 128 8<36 64 88 116> 176 8<95 112>
VStem: 64 24<0 128 136 169> 116 24<156 174>
LayerCount: 2
Fore
SplineSet
64 128 m 5xbc
 36 128 l 5
 36 136 l 5
 64 136 l 5
 64 148 l 6
 64 176 86 184 102 184 c 4
 120 184 140 184 140 156 c 5
 116 156 l 5
 116 174 110 176 104 176 c 4
 102 176 l 4
 96 176 88 168 88 148 c 6
 88 136 l 5
 116 136 l 5
 116 128 l 5
 88 128 l 5
 88 0 l 5
 64 0 l 5
 64 128 l 5xbc
EndSplineSet
EndChar

StartChar: uniFB01
Encoding: 64257 64257 27
Width: 304
VWidth: 0
Flags: HW
HStem: 0 42G<38 62 190 214> 0 42G<38 62 190 214> 128 8<12 38 62 190> 176 8<78 178>
VStem: 38 24<0 128 136 167> 190 24<0 128 156 169>
LayerCount: 2
Fore
SplineSet
62 136 m 1xbc
 214 136 l 1
 214 0 l 1
 190 0 l 1
 190 128 l 1
 62 128 l 1
 62 0 l 1
 38 0 l 1
 38 128 l 1
 12 128 l 1
 12 136 l 1
 38 136 l 1
 38 148 l 2
 38 176 52 184 128 184 c 0
 184 184 214 184 214 156 c 1
 190 156 l 1
 190 178 168 176 128 176 c 0
 64 176 62 168 62 148 c 2
 62 136 l 1xbc
EndSplineSet
LCarets2: 1 0
Ligature2: "'rlig' Required Ligatures in Latin lookup 0-1" f i
EndChar

StartChar: uniFB02
Encoding: 64258 64258 28
Width: 304
VWidth: 0
Flags: HW
HStem: 0 8<222 248> 128 8<12 40 64 92> 176 8<71 194>
VStem: 40 24<0 128 136 169> 194 24<11 176>
LayerCount: 2
Fore
SplineSet
78 176 m 2
 72 176 64 168 64 148 c 2
 64 136 l 1
 92 136 l 1
 92 128 l 1
 64 128 l 1
 64 0 l 1
 40 0 l 1
 40 128 l 1
 12 128 l 1
 12 136 l 1
 40 136 l 1
 40 148 l 2
 40 176 62 184 78 184 c 2
 174 184 l 1
 218 184 l 1
 218 184 218 100 218 24 c 0
 218 14 224 8 230 8 c 0
 242 8 248 8 248 8 c 1
 248 0 l 1
 248 0 232 0 218 0 c 0
 202 0 194 8 194 24 c 0
 194 98 194 176 194 176 c 1
 174 176 l 1
 78 176 l 2
EndSplineSet
LCarets2: 1 0
Ligature2: "'rlig' Required Ligatures in Latin lookup 0-1" f l
EndChar

StartChar: O
Encoding: 79 79 30
AltUni2: 00039f.ffffffff.0
Width: 152
VWidth: 0
Flags: HW
HStem: -2 8<53 99> 178 8<53 99>
VStem: 12 24<18 166> 116 24<18 166>
LayerCount: 2
Fore
SplineSet
76 186 m 0
 104 186 140 180 140 152 c 0
 140 124 140 60 140 32 c 0
 140 4 104 -2 76 -2 c 0
 48 -2 12 4 12 32 c 0
 12 60 12 124 12 152 c 0
 12 180 48 186 76 186 c 0
76 178 m 0
 56 178 36 172 36 152 c 0
 36 124 36 60 36 32 c 0
 36 12 56 6 76 6 c 0
 96 6 116 12 116 32 c 0
 116 60 116 124 116 152 c 0
 116 172 96 178 76 178 c 0
EndSplineSet
EndChar

StartChar: V
Encoding: 86 86 31
Width: 152
VWidth: 0
Flags: HW
HStem: 0 42G<62 96> 0 42G<62 96> 144 40G<12 46 120 140>
LayerCount: 2
Fore
SplineSet
12 184 m 1xa0
 32 184 l 1
 86 32 l 1
 132 184 l 1
 140 184 l 1
 84 0 l 1
 76 0 l 1
 12 184 l 1xa0
EndSplineSet
EndChar

StartChar: Y
Encoding: 89 89 32
AltUni2: 0003a5.ffffffff.0
Width: 152
VWidth: 0
Flags: HW
HStem: 0 42G<66 90> 0 42G<66 90> 144 40G<12 58 107 140>
VStem: 66 24<0 94>
LayerCount: 2
Fore
SplineSet
12 184 m 1xb0
 34 184 l 1
 82 104 l 1
 132 184 l 1
 140 184 l 1
 90 104 l 1
 90 0 l 1
 66 0 l 1
 66 94 l 1
 12 184 l 1xb0
EndSplineSet
EndChar

StartChar: J
Encoding: 74 74 33
Width: 152
VWidth: 0
Flags: HW
HStem: -2 8<54 98> 144 40G<116 140>
VStem: 12 24<19 34> 116 24<19 184>
LayerCount: 2
Fore
SplineSet
116 184 m 0
 140 184 l 0
 140 156 140 62 140 34 c 0
 140 6 104 -2 76 -2 c 0
 48 -2 12 6 12 34 c 0
 36 34 l 0
 36 14 56 6 76 6 c 0
 96 6 116 14 116 34 c 0
 116 62 116 156 116 184 c 0
EndSplineSet
EndChar

StartChar: I
Encoding: 73 73 34
Width: 152
VWidth: 0
Flags: HW
HStem: 0 8<36 66 90 116> 176 8<36 66 90 116>
VStem: 66 24<8 176>
LayerCount: 2
Fore
SplineSet
36 184 m 1
 116 184 l 1
 116 176 l 1
 90 176 l 1
 90 8 l 1
 116 8 l 1
 116 0 l 1
 36 0 l 1
 36 8 l 1
 66 8 l 1
 66 176 l 1
 36 176 l 1
 36 184 l 1
EndSplineSet
EndChar

StartChar: T
Encoding: 84 84 35
AltUni2: 0003a4.ffffffff.0
Width: 152
VWidth: 0
Flags: HW
HStem: 0 42G<64 88> 0 42G<64 88> 176 8<12 64 88 140>
VStem: 64 24<0 176>
LayerCount: 2
Fore
SplineSet
12 184 m 1xb0
 140 184 l 1
 140 176 l 1
 88 176 l 1
 88 0 l 1
 64 0 l 1
 64 176 l 1
 12 176 l 1
 12 184 l 1xb0
EndSplineSet
EndChar

StartChar: U
Encoding: 85 85 36
Width: 152
VWidth: 0
Flags: HW
HStem: -2 8<54 98> 144 40G<12 36 116 140>
VStem: 12 24<19 184> 116 24<19 184>
LayerCount: 2
Fore
SplineSet
116 184 m 1
 140 184 l 1
 140 156 140 62 140 34 c 0
 140 6 104 -2 76 -2 c 0
 48 -2 12 6 12 34 c 2
 12 184 l 1
 36 184 l 1
 36 34 l 2
 36 14 56 6 76 6 c 0
 96 6 116 14 116 34 c 0
 116 62 116 156 116 184 c 1
EndSplineSet
EndChar

StartChar: underscore
Encoding: 95 95 38
Width: 152
VWidth: 0
Flags: HW
HStem: 0 8<12 140>
LayerCount: 2
Fore
SplineSet
12 8 m 1
 140 8 l 1
 140 0 l 1
 12 0 l 1
 12 8 l 1
EndSplineSet
EndChar

StartChar: asterisk
Encoding: 42 42 39
Width: 152
VWidth: 0
Flags: HW
HStem: 56 80
LayerCount: 2
Fore
SplineSet
76 136 m 1
 86 106 l 1
 118 106 l 1
 92 86 l 1
 102 56 l 1
 76 76 l 1
 50 56 l 1
 60 86 l 1
 34 106 l 1
 66 106 l 1
 76 136 l 1
EndSplineSet
EndChar

StartChar: hyphen
Encoding: 45 45 40
AltUni2: 0000ad.ffffffff.0
Width: 152
VWidth: 0
Flags: HW
HStem: 88 8<12 140>
LayerCount: 2
Fore
SplineSet
12 96 m 1
 140 96 l 1
 140 88 l 1
 12 88 l 1
 12 96 l 1
EndSplineSet
EndChar

StartChar: plus
Encoding: 43 43 41
Width: 152
VWidth: 0
Flags: HW
HStem: 88 8<12 64 88 140>
VStem: 64 24<28 88 96 156>
LayerCount: 2
Fore
SplineSet
64 156 m 1
 88 156 l 1
 88 96 l 1
 140 96 l 1
 140 88 l 1
 88 88 l 1
 88 28 l 1
 64 28 l 1
 64 88 l 1
 12 88 l 1
 12 96 l 1
 64 96 l 1
 64 156 l 1
EndSplineSet
EndChar

StartChar: C
Encoding: 67 67 42
Width: 152
VWidth: 0
Flags: HW
HStem: -2 8<53 99> 178 8<53 99>
VStem: 12 24<18 166> 116 24<18 32 152 166>
LayerCount: 2
Fore
SplineSet
140 32 m 0
 140 4 104 -2 76 -2 c 0
 48 -2 12 4 12 32 c 0
 12 60 12 124 12 152 c 0
 12 180 48 186 76 186 c 0
 104 186 140 180 140 152 c 0
 116 152 l 0
 116 172 96 178 76 178 c 0
 56 178 36 172 36 152 c 0
 36 124 36 60 36 32 c 0
 36 12 56 6 76 6 c 0
 96 6 116 12 116 32 c 0
 140 32 l 0
EndSplineSet
EndChar

StartChar: three
Encoding: 51 51 43
Width: 152
VWidth: 0
Flags: HW
HStem: -2 8<53 99> 92 8<76 100> 178 8<53 99>
VStem: 12 24<18 32 152 166> 116 24<18 81 111 166>
LayerCount: 2
Fore
SplineSet
108 96 m 1
 126 92 140 84 140 66 c 2
 140 32 l 2
 140 4 104 -2 76 -2 c 0
 48 -2 12 4 12 32 c 1
 36 32 l 1
 36 12 56 6 76 6 c 0
 96 6 116 12 116 32 c 2
 116 66 l 2
 116 86 96 92 76 92 c 1
 76 100 l 1
 96 100 116 106 116 126 c 2
 116 152 l 2
 116 172 96 178 76 178 c 0
 56 178 36 172 36 152 c 1
 12 152 l 1
 12 180 48 186 76 186 c 0
 104 186 140 180 140 152 c 2
 140 126 l 2
 140 108 126 100 108 96 c 1
EndSplineSet
EndChar

StartChar: six
Encoding: 54 54 44
Width: 152
VWidth: 0
Flags: HW
HStem: -2 8<53 99> 100 8<52 99> 178 8<53 99>
VStem: 12 24<18 89 102 166> 116 24<18 88 152 166>
LayerCount: 2
Fore
SplineSet
76 108 m 0
 104 108 140 102 140 74 c 0
 140 46 140 60 140 32 c 0
 140 4 104 -2 76 -2 c 0
 48 -2 12 4 12 32 c 0
 12 60 12 46 12 74 c 2
 12 152 l 2
 12 180 48 186 76 186 c 0
 104 186 140 180 140 152 c 1
 116 152 l 1
 116 172 96 178 76 178 c 0
 56 178 36 172 36 152 c 2
 36 102 l 1
 48 106 62 108 76 108 c 0
116 32 m 0
 116 60 116 46 116 74 c 0
 116 94 96 100 76 100 c 0
 56 100 36 94 36 74 c 2
 36 32 l 2
 36 12 56 6 76 6 c 0
 96 6 116 12 116 32 c 0
EndSplineSet
EndChar

StartChar: H
Encoding: 72 72 45
AltUni2: 000397.ffffffff.0
Width: 152
VWidth: 0
Flags: HW
HStem: 0 42G<12 36 116 140> 0 42G<12 36 116 140> 88 8<36 116> 144 40G<12 36 116 140>
VStem: 12 24<0 88 96 184> 116 24<0 88 96 184>
LayerCount: 2
Fore
SplineSet
12 184 m 1xbc
 36 184 l 1
 36 96 l 1
 116 96 l 1
 116 184 l 1
 140 184 l 1
 140 96 l 1
 140 88 l 1
 140 0 l 1
 116 0 l 1
 116 88 l 1
 36 88 l 1
 36 0 l 1
 12 0 l 1
 12 88 l 1
 12 96 l 1
 12 184 l 1xbc
EndSplineSet
EndChar

StartChar: A
Encoding: 65 65 46
AltUni2: 000391.ffffffff.0
Width: 152
VWidth: 0
Flags: HW
HStem: 0 42G<12 32 105 140> 0 42G<12 32 105 140> 54 8<38 98> 144 40G<56 90>
LayerCount: 2
Fore
SplineSet
140 0 m 1xb0
 120 0 l 1
 100 54 l 1
 36 54 l 1
 20 0 l 1
 12 0 l 1
 68 184 l 1
 76 184 l 1
 140 0 l 1xb0
98 62 m 1
 66 152 l 1
 38 62 l 1
 98 62 l 1
EndSplineSet
EndChar

StartChar: D
Encoding: 68 68 47
Width: 152
VWidth: 0
Flags: HW
HStem: 0 8<36 99> 176 8<36 99>
VStem: 12 24<8 176> 116 24<20 164>
LayerCount: 2
Fore
SplineSet
76 184 m 2
 104 184 140 178 140 150 c 2
 140 34 l 2
 140 6 104 0 76 0 c 2
 12 0 l 1
 12 184 l 1
 76 184 l 2
76 176 m 2
 36 176 l 1
 36 8 l 1
 76 8 l 2
 96 8 116 14 116 34 c 2
 116 150 l 2
 116 170 96 176 76 176 c 2
EndSplineSet
EndChar

StartChar: F
Encoding: 70 70 48
Width: 152
VWidth: 0
Flags: HW
HStem: 0 42G<12 36> 0 42G<12 36> 88 8<36 124> 176 8<36 140>
VStem: 12 24<0 88 96 176>
LayerCount: 2
Fore
SplineSet
36 176 m 1xb8
 36 96 l 1
 124 96 l 1
 124 88 l 1
 36 88 l 1
 36 0 l 1
 12 0 l 1
 12 88 l 1
 12 96 l 1
 12 176 l 1
 12 184 l 1
 36 184 l 1
 140 184 l 1
 140 176 l 1
 36 176 l 1xb8
EndSplineSet
EndChar

StartChar: E
Encoding: 69 69 49
AltUni2: 000395.ffffffff.0
Width: 152
VWidth: 0
Flags: HW
HStem: 0 8<36 140> 88 8<36 124> 176 8<36 140>
VStem: 12 24<8 88 96 176>
CounterMasks: 1 e0
LayerCount: 2
Fore
SplineSet
36 176 m 1
 36 96 l 1
 124 96 l 1
 124 88 l 1
 36 88 l 1
 36 8 l 1
 140 8 l 1
 140 0 l 1
 36 0 l 1
 12 0 l 1
 12 88 l 1
 12 96 l 1
 12 176 l 1
 12 184 l 1
 36 184 l 1
 140 184 l 1
 140 176 l 1
 36 176 l 1
EndSplineSet
EndChar

StartChar: eight
Encoding: 56 56 50
Width: 152
VWidth: 0
Flags: HW
HStem: -2 8<54 98> 92 8<54 98> 178 8<54 98>
VStem: 12 24<19 79 113 165> 116 24<19 79 113 165>
LayerCount: 2
Fore
SplineSet
76 178 m 0
 56 178 36 170 36 150 c 2
 36 128 l 2
 36 108 56 100 76 100 c 0
 96 100 116 108 116 128 c 2
 116 150 l 2
 116 170 96 178 76 178 c 0
76 186 m 0
 104 186 140 178 140 150 c 2
 140 128 l 2
 140 110 126 100 108 96 c 1
 126 92 140 82 140 64 c 0
 140 36 140 62 140 34 c 0
 140 6 104 -2 76 -2 c 0
 48 -2 12 6 12 34 c 0
 12 62 12 36 12 64 c 0
 12 82 26 92 44 96 c 1
 26 100 12 110 12 128 c 2
 12 150 l 2
 12 178 48 186 76 186 c 0
76 92 m 0
 56 92 36 84 36 64 c 0
 36 36 36 62 36 34 c 0
 36 14 56 6 76 6 c 0
 96 6 116 14 116 34 c 0
 116 62 116 36 116 64 c 0
 116 84 96 92 76 92 c 0
EndSplineSet
EndChar

StartChar: nine
Encoding: 57 57 51
Width: 152
VWidth: 0
Flags: HW
HStem: -2 8<53 99> 80 8<53 100> 178 8<53 99>
VStem: 12 24<18 32 100 166> 116 24<18 86 99 166>
LayerCount: 2
Fore
SplineSet
76 80 m 0
 48 80 12 86 12 114 c 0
 12 142 12 124 12 152 c 0
 12 180 48 186 76 186 c 0
 104 186 140 180 140 152 c 0
 140 124 140 138 140 110 c 2
 140 32 l 2
 140 4 104 -2 76 -2 c 0
 48 -2 12 4 12 32 c 1
 36 32 l 1
 36 12 56 6 76 6 c 0
 96 6 116 12 116 32 c 2
 116 86 l 1
 104 82 90 80 76 80 c 0
36 152 m 0
 36 124 36 142 36 114 c 0
 36 94 56 88 76 88 c 0
 96 88 116 94 116 114 c 2
 116 152 l 2
 116 172 96 178 76 178 c 0
 56 178 36 172 36 152 c 0
EndSplineSet
EndChar

StartChar: P
Encoding: 80 80 52
AltUni2: 0003a1.ffffffff.0
Width: 152
VWidth: 0
Flags: HW
HStem: 0 42G<12 36> 0 42G<12 36> 84 8<36 98> 176 8<36 98>
VStem: 12 24<0 84 92 176> 116 24<105 163>
LayerCount: 2
Fore
SplineSet
76 176 m 2x3c
 36 176 l 1
 36 92 l 1
 76 92 l 2
 96 92 116 100 116 120 c 2
 116 148 l 2
 116 168 96 176 76 176 c 2x3c
76 184 m 2
 104 184 140 176 140 148 c 2
 140 120 l 2
 140 92 104 84 76 84 c 2
 36 84 l 1
 36 0 l 1
 12 0 l 1xbc
 12 88 l 1
 12 184 l 1
 76 184 l 2
EndSplineSet
EndChar

StartChar: B
Encoding: 66 66 53
AltUni2: 000392.ffffffff.0
Width: 152
VWidth: 0
Flags: HW
HStem: 0 8<36 98> 92 8<36 98> 176 8<36 98>
VStem: 12 24<8 92 100 176> 116 24<21 79 113 163>
LayerCount: 2
Fore
SplineSet
76 176 m 2
 36 176 l 1
 36 100 l 1
 76 100 l 2
 96 100 116 108 116 128 c 2
 116 148 l 2
 116 168 96 176 76 176 c 2
76 184 m 2
 104 184 140 176 140 148 c 2
 140 128 l 2
 140 110 126 100 108 96 c 1
 126 92 140 82 140 64 c 2
 140 36 l 2
 140 8 104 0 76 0 c 2
 12 0 l 1
 12 88 l 1
 12 96 l 1
 12 184 l 1
 76 184 l 2
76 92 m 2
 36 92 l 1
 36 8 l 1
 76 8 l 2
 96 8 116 16 116 36 c 2
 116 64 l 2
 116 84 96 92 76 92 c 2
EndSplineSet
EndChar

StartChar: at
Encoding: 64 64 54
Width: 152
VWidth: 0
Flags: HW
HStem: 0 8<63 140> 40 8<98 116> 128 8<98 116> 178 8<53 97>
VStem: 12 24<22 166> 64 24<57 119> 116 24<48 128 136 165>
CounterMasks: 1 0e
LayerCount: 2
Fore
SplineSet
140 0 m 1
 92 0 l 0
 64 0 12 4 12 50 c 0
 12 78 12 124 12 152 c 0
 12 180 48 186 76 186 c 0
 104 186 140 180 140 152 c 2
 140 48 l 5
 116 48 l 6
 88 48 64 56 64 84 c 6
 64 108 l 6
 64 136 88 144 116 144 c 5
 116 147 116 148 116 152 c 3
 116 170 93 178 76 178 c 0
 56 178 36 172 36 152 c 0
 36 124 36 78 36 50 c 0
 36 18 72 8 92 8 c 0
 140 8 l 1
 140 0 l 1
116 136 m 5
 96 136 88 128 88 108 c 6
 88 84 l 6
 88 64 96 56 116 56 c 5
 116 136 l 5
EndSplineSet
EndChar

StartChar: Z
Encoding: 90 90 55
AltUni2: 000396.ffffffff.0
Width: 152
VWidth: 0
Flags: HW
HStem: 0 8<42 140> 176 8<12 110>
LayerCount: 2
Fore
SplineSet
110 176 m 1
 12 176 l 1
 12 184 l 1
 116 184 l 1
 120 184 l 1
 140 184 l 1
 42 8 l 1
 140 8 l 1
 140 0 l 1
 36 0 l 1
 32 0 l 1
 12 0 l 1
 110 176 l 1
EndSplineSet
EndChar

StartChar: quotesingle
Encoding: 39 39 56
Width: 152
VWidth: 0
Flags: HW
HStem: 136 48<64 88>
VStem: 64 24<136 184>
LayerCount: 2
Fore
SplineSet
64 184 m 1
 88 184 l 1
 88 136 l 1
 64 136 l 1
 64 184 l 1
EndSplineSet
EndChar

StartChar: quotedbl
Encoding: 34 34 57
Width: 152
VWidth: 0
Flags: HW
HStem: 136 48<40 64 88 112>
VStem: 40 24<136 184> 88 24<136 184>
LayerCount: 2
Fore
SplineSet
88 184 m 1
 112 184 l 1
 112 136 l 1
 88 136 l 1
 88 184 l 1
64 184 m 1
 64 136 l 1
 40 136 l 1
 40 184 l 1
 64 184 l 1
EndSplineSet
EndChar

StartChar: period
Encoding: 46 46 58
Width: 152
VWidth: 0
Flags: HW
HStem: 0 24<65 87>
VStem: 64 24<1 23>
LayerCount: 2
Fore
SplineSet
64 12 m 0
 64 20 68 24 76 24 c 0
 84 24 88 20 88 12 c 0
 88 4 84 0 76 0 c 0
 68 0 64 4 64 12 c 0
EndSplineSet
EndChar

StartChar: exclam
Encoding: 33 33 59
Width: 152
VWidth: 0
Flags: HW
HStem: 0 24<65 87> 144 40G<64 88>
VStem: 64 24<1 23 40 184>
LayerCount: 2
Fore
SplineSet
64 184 m 1
 88 184 l 1
 88 40 l 1
 64 40 l 1
 64 184 l 1
EndSplineSet
Refer: 58 46 N 1 0 0 1 0 0 2
EndChar

StartChar: slash
Encoding: 47 47 61
Width: 152
VWidth: 0
Flags: HW
HStem: 0 42G<12 57> 0 42G<12 57> 144 40G<95 140>
LayerCount: 2
Fore
SplineSet
140 184 m 1xa0
 34 0 l 1
 12 0 l 1
 118 184 l 1
 140 184 l 1xa0
EndSplineSet
EndChar

StartChar: k
Encoding: 107 107 63
Width: 152
VWidth: 0
Flags: HW
LayerCount: 2
Fore
SplineSet
36 84 m 3
 36 124 36 184 36 184 c 1
 12 184 l 1
 12 0 l 1
 36 0 l 1
 36 70 l 1
 122 0 l 1
 144 0 l 1
 50 76 l 1
 140 136 l 1
 126 136 l 1
 50 84 l 0
 48 82 36 80 36 84 c 3
EndSplineSet
Colour: ffff00
EndChar

StartChar: bar
Encoding: 124 124 64
Width: 152
VWidth: 0
Flags: HW
HStem: 0 42G<64 88> 0 42G<64 88> 144 40G<64 88>
VStem: 64 24<0 184>
LayerCount: 2
Fore
SplineSet
64 192 m 5xb0
 88 192 l 5
 88 -8 l 1
 64 -8 l 1
 64 192 l 5xb0
EndSplineSet
EndChar

StartChar: G
Encoding: 71 71 65
Width: 152
VWidth: 0
Flags: HW
HStem: -2 8<53 99> 84 8<64 116> 178 8<53 99>
VStem: 12 24<18 166> 116 24<18 84 152 166>
LayerCount: 2
Fore
SplineSet
140 32 m 2
 140 4 104 -2 76 -2 c 0
 48 -2 12 4 12 32 c 0
 12 60 12 124 12 152 c 0
 12 180 48 186 76 186 c 0
 104 186 140 180 140 152 c 1
 116 152 l 1
 116 172 96 178 76 178 c 0
 56 178 36 172 36 152 c 0
 36 124 36 60 36 32 c 0
 36 12 56 6 76 6 c 0
 96 6 116 12 116 32 c 2
 116 84 l 1
 64 84 l 1
 64 92 l 1
 116 92 l 1
 140 92 l 1
 140 32 l 2
EndSplineSet
EndChar

StartChar: R
Encoding: 82 82 66
Width: 152
VWidth: 0
Flags: HW
HStem: 0 42G<12 36 96 148> 0 42G<12 36 96 148> 84 8<36 62 84 98> 176 8<36 98>
VStem: 12 24<0 84 92 176> 116 24<105 163>
LayerCount: 2
Fore
SplineSet
76 184 m 2xbc
 104 184 140 176 140 148 c 2
 140 120 l 2
 140 94 110 84 84 84 c 1
 148 0 l 1
 126 0 l 1
 62 84 l 1
 36 84 l 1
 36 0 l 1
 12 0 l 1
 12 88 l 1
 12 184 l 1
 76 184 l 2xbc
76 176 m 2
 36 176 l 1
 36 92 l 1
 76 92 l 2
 96 92 116 100 116 120 c 2
 116 148 l 2
 116 168 96 176 76 176 c 2
EndSplineSet
EndChar

StartChar: parenleft
Encoding: 40 40 67
Width: 152
VWidth: 0
Flags: HW
HStem: -10 8<90 104> 186 8<90 104>
VStem: 40 24<23 161>
LayerCount: 2
Fore
SplineSet
104 -10 m 0
 76 -10 40 14 40 42 c 0
 40 70 40 114 40 142 c 0
 40 170 76 194 104 194 c 0
 104 186 l 0
 84 186 64 162 64 142 c 0
 64 114 64 70 64 42 c 0
 64 22 84 -2 104 -2 c 0
 104 -10 l 0
EndSplineSet
EndChar

StartChar: one
Encoding: 49 49 69
Width: 152
VWidth: 0
Flags: HW
HStem: 0 42G<66 90> 0 42G<66 90> 176 8<38 66>
VStem: 66 24<0 176>
LayerCount: 2
Fore
SplineSet
38 184 m 1xb0
 90 184 l 1
 90 0 l 1
 66 0 l 1
 66 176 l 0
 38 176 l 0
 38 184 l 1xb0
EndSplineSet
EndChar

StartChar: W
Encoding: 87 87 70
Width: 152
VWidth: 0
Flags: HW
HStem: 0 42G<42 64 96 118> 0 42G<42 64 96 118> 144 40G<12 39 72 93 126 140>
VStem: 12 20<175 184> 78 8<174 184>
LayerCount: 2
Fore
SplineSet
12 184 m 1xb8
 32 184 l 1
 58 44 l 1
 78 184 l 1
 86 184 l 1
 110 44 l 1
 132 184 l 1
 140 184 l 1
 112 0 l 1
 104 0 l 1
 78 128 l 1
 58 0 l 1
 50 0 l 1
 12 184 l 1xb8
EndSplineSet
EndChar

StartChar: X
Encoding: 88 88 71
AltUni2: 0003a7.ffffffff.0
Width: 152
VWidth: 0
Flags: HW
HStem: 0 42G<12 46 97 142> 0 42G<12 46 97 142> 144 40G<12 56 107 140>
LayerCount: 2
Fore
SplineSet
140 184 m 1xa0
 84 94 l 1
 142 0 l 1
 118 0 l 1
 74 82 l 1
 20 0 l 1
 12 0 l 1
 70 88 l 1
 12 184 l 1
 34 184 l 1
 80 102 l 1
 132 184 l 1
 140 184 l 1xa0
EndSplineSet
EndChar

StartChar: S
Encoding: 83 83 72
Width: 152
VWidth: 0
Flags: HW
HStem: -2 8<57 95> 92 8<54 98> 178 8<57 95>
VStem: 12 24<22 38 113 162> 116 24<22 79 146 162>
LayerCount: 2
Fore
SplineSet
76 100 m 0
 104 100 140 92 140 64 c 2
 140 38 l 2
 140 10 104 -2 76 -2 c 0
 48 -2 12 10 12 38 c 1
 36 38 l 1
 36 18 56 6 76 6 c 0
 96 6 116 18 116 38 c 2
 116 64 l 2
 116 84 96 92 76 92 c 0
 48 92 12 100 12 128 c 2
 12 146 l 2
 12 174 48 186 76 186 c 0
 104 186 140 174 140 146 c 1
 116 146 l 1
 116 166 96 178 76 178 c 0
 56 178 36 166 36 146 c 2
 36 128 l 2
 36 108 56 100 76 100 c 0
EndSplineSet
EndChar

StartChar: w
Encoding: 119 119 73
Width: 152
VWidth: 0
Flags: HW
HStem: 0 42G<39 67 93 120> 0 42G<39 67 93 120> 96 40G<12 42 70 95 124 140>
VStem: 12 20<130 136> 78 8<128 136>
LayerCount: 2
Fore
SplineSet
12 136 m 5xb8
 32 136 l 5
 58 32 l 5
 78 136 l 5
 86 136 l 5
 110 32 l 5
 132 136 l 5
 140 136 l 5
 112 0 l 5
 104 0 l 5
 78 94 l 5
 58 0 l 5
 50 0 l 5
 12 136 l 5xb8
EndSplineSet
EndChar

StartChar: bracketleft
Encoding: 91 91 74
Width: 152
VWidth: 0
Flags: HW
HStem: 0 8<60 116> 176 8<60 116>
VStem: 36 24<8 176>
LayerCount: 2
Fore
SplineSet
36 0 m 1
 36 184 l 1
 60 184 l 1
 116 184 l 1
 116 176 l 1
 60 176 l 1
 60 8 l 1
 116 8 l 1
 116 0 l 1
 60 0 l 1
 36 0 l 1
EndSplineSet
EndChar

StartChar: Q
Encoding: 81 81 76
Width: 152
VWidth: 0
Flags: HW
HStem: -2 8<53 92> 178 8<53 99>
VStem: 12 24<18 166> 116 24<17 166>
LayerCount: 2
Fore
SplineSet
76 178 m 0
 56 178 36 172 36 152 c 0
 36 124 36 60 36 32 c 0
 36 12 56 6 76 6 c 0
 96 6 116 12 116 32 c 0
 116 60 116 124 116 152 c 0
 116 172 96 178 76 178 c 0
76 186 m 0
 104 186 140 180 140 152 c 0
 140 124 140 60 140 32 c 0
 140 16 126 6 110 2 c 1
 136 -24 l 1
 114 -24 l 1
 92 -2 l 2
 86 -2 80 -2 76 -2 c 0
 48 -2 12 4 12 32 c 0
 12 60 12 124 12 152 c 0
 12 180 48 186 76 186 c 0
EndSplineSet
EndChar

StartChar: N
Encoding: 78 78 77
AltUni2: 00039d.ffffffff.0
Width: 152
VWidth: 0
Flags: HW
HStem: 0 42G<12 36 100 140> 0 42G<12 36 100 140> 144 40G<12 52 116 140>
VStem: 12 24<0 154> 116 24<30 184>
LayerCount: 2
Fore
SplineSet
140 184 m 1xb8
 140 0 l 1
 122 0 l 1
 36 154 l 1
 36 106 36 48 36 0 c 1
 12 0 l 1
 12 184 l 1
 30 184 l 1
 116 30 l 1
 116 184 l 1
 140 184 l 1xb8
EndSplineSet
Colour: ffff00
EndChar

StartChar: five
Encoding: 53 53 78
Width: 152
VWidth: 0
Flags: HW
HStem: -2 8<53 99> 100 8<43 99> 178 6<36 140>
VStem: 12 24<18 32 102 178> 116 24<18 88>
LayerCount: 2
Fore
SplineSet
116 32 m 2
 116 74 l 2
 116 94 96 100 76 100 c 0
 54 100 36 98 28 88 c 1
 12 88 l 1
 12 184 l 1
 140 184 l 1
 140 178 l 1
 36 178 l 1
 36 102 l 5
 48 106 62 108 76 108 c 0
 104 108 140 102 140 74 c 2
 140 32 l 2
 140 4 104 -2 76 -2 c 0
 48 -2 12 4 12 32 c 1
 36 32 l 1
 36 12 56 6 76 6 c 0
 96 6 116 12 116 32 c 2
EndSplineSet
EndChar

StartChar: seven
Encoding: 55 55 79
Width: 152
VWidth: 0
Flags: HW
HStem: 0 42G<56 91> 0 42G<56 91> 176 8<12 116>
LayerCount: 2
Fore
SplineSet
140 184 m 1xa0
 78 0 l 1
 56 0 l 1
 116 176 l 1
 12 176 l 1
 12 184 l 1
 118 184 l 1
 122 184 l 1
 140 184 l 1xa0
EndSplineSet
EndChar

StartChar: M
Encoding: 77 77 80
Width: 152
VWidth: 0
Flags: HW
HStem: 0 42G<12 36 61 96 116 140> 0 42G<12 36 61 96 116 140> 144 40G<12 43 120 140>
VStem: 12 24<0 110> 116 24<0 106> 132 8<178 184>
LayerCount: 2
Fore
SplineSet
140 184 m 1xb4
 140 0 l 1
 116 0 l 1
 116 106 l 1xb8
 84 0 l 1
 76 0 l 1
 36 110 l 1
 36 0 l 1
 12 0 l 1
 12 184 l 1
 28 184 l 1
 86 30 l 1
 132 184 l 1
 140 184 l 1xb4
EndSplineSet
Colour: ffff00
EndChar

StartChar: uni007F
Encoding: 127 127 81
Width: 152
VWidth: 0
Flags: HW
HStem: 0 8<20 132> 176 8<20 132>
VStem: 12 8<8 176> 132 8<8 176>
LayerCount: 2
Fore
SplineSet
20 176 m 5
 20 8 l 5
 132 8 l 5
 132 176 l 5
 20 176 l 5
12 184 m 5
 140 184 l 5
 140 0 l 5
 12 0 l 5
 12 184 l 5
EndSplineSet
EndChar

StartChar: K
Encoding: 75 75 82
AltUni2: 00039a.ffffffff.0
Width: 152
VWidth: 0
Flags: HW
LayerCount: 2
Fore
SplineSet
36 110 m 7
 36 150 36 184 36 184 c 1
 12 184 l 1
 12 0 l 1
 36 0 l 1
 36 92 l 1
 122 0 l 1
 144 0 l 1
 50 98 l 1
 140 184 l 1
 126 184 l 1
 54 112 l 0
 46 104 36 98 36 110 c 7
EndSplineSet
EndChar

StartChar: question
Encoding: 63 63 83
Width: 152
VWidth: 0
Flags: HW
HStem: 0 24<65 87> 178 8<53 99>
VStem: 12 24<152 166> 64 24<1 23 40 92> 116 24<111 166>
CounterMasks: 1 38
LayerCount: 2
Fore
SplineSet
88 92 m 5
 88 40 l 1
 64 40 l 1
 64 100 l 5
 76 100 l 6
 96 100 116 106 116 126 c 4
 116 154 116 124 116 152 c 0
 116 172 96 178 76 178 c 0
 56 178 36 172 36 152 c 1
 12 152 l 1
 12 180 48 186 76 186 c 0
 104 186 140 180 140 152 c 0
 140 124 140 154 140 126 c 4
 140 102 114 94 88 92 c 5
EndSplineSet
Refer: 58 46 N 1 0 0 1 0 0 2
EndChar

StartChar: less
Encoding: 60 60 87
Width: 152
VWidth: 0
Flags: HW
LayerCount: 2
Fore
SplineSet
142 24 m 5
 142 46 l 5
 30 98 l 5
 142 144 l 5
 142 152 l 5
 6 96 l 5
 6 88 l 5
 142 24 l 5
EndSplineSet
EndChar

StartChar: greater
Encoding: 62 62 88
Width: 152
VWidth: 0
Flags: HW
LayerCount: 2
Fore
SplineSet
10 160 m 5
 10 138 l 5
 122 86 l 5
 10 40 l 5
 10 32 l 5
 146 88 l 5
 146 96 l 5
 10 160 l 5
EndSplineSet
EndChar

StartChar: equal
Encoding: 61 61 89
Width: 152
VWidth: 0
Flags: HW
HStem: 64 8<12 140> 112 8<12 140>
LayerCount: 2
Fore
SplineSet
12 72 m 1
 140 72 l 1
 140 64 l 1
 12 64 l 1
 12 72 l 1
12 120 m 1
 140 120 l 1
 140 112 l 1
 12 112 l 1
 12 120 l 1
EndSplineSet
EndChar

StartChar: section
Encoding: 167 167 90
Width: 152
VWidth: 0
Flags: HW
HStem: -2 8<53 99> 54 8<53 100> 122 8<52 99> 178 8<53 99>
VStem: 12 24<18 32 74 88 96 111 152 166> 116 24<18 32 73 88 96 110 152 166>
LayerCount: 2
Fore
SplineSet
12 32 m 1
 12 4 48 -2 76 -2 c 0
 104 -2 140 4 140 32 c 2
 140 88 l 1
 140 96 l 2
 140 124 104 130 76 130 c 0
 36 130 l 1
 36 152 l 2
 36 172 56 178 76 178 c 0
 96 178 116 172 116 152 c 1
 140 152 l 1
 140 180 104 186 76 186 c 0
 48 186 12 180 12 152 c 2
 12 96 l 1
 12 88 l 2
 12 60 48 54 76 54 c 0
 116 54 l 1
 116 32 l 2
 116 12 96 6 76 6 c 0
 56 6 36 12 36 32 c 1
 12 32 l 1
36 96 m 2
 36 121.645507812 l 1
 76 122 l 0
 96 122 116 116 116 96 c 2
 116 88 l 2
 116 62.3544921875 l 5
 76 62 l 0
 56.0000000056 62.000473884 36 68 36 88 c 2
 36 96 l 2
EndSplineSet
EndChar

StartChar: four
Encoding: 52 52 91
Width: 256
VWidth: 0
Flags: HW
HStem: 0 42G<116 140> 0 42G<116 140> 92 8<36 116> 144 40G<12 36 116 140>
VStem: 12 24<100 184> 116 24<0 92 100 184>
LayerCount: 2
Fore
SplineSet
12 184 m 1xbc
 36 184 l 1
 36 100 l 1
 116 100 l 1
 116 184 l 1
 140 184 l 1
 140 100 l 1
 140 92 l 1
 140 0 l 1
 116 0 l 1
 116 92 l 1
 36 92 l 1
 12 92 l 1
 12 100 l 1
 12 184 l 1xbc
EndSplineSet
EndChar

StartChar: two
Encoding: 50 50 92
Width: 152
VWidth: 0
Flags: HW
HStem: 84 8<54 98> 178 8<57 95>
VStem: 12 24<56 71 146 162> 116 24<105 120 146 162>
LayerCount: 2
Fore
SplineSet
76 92 m 4
 48 92 12 84 12 56 c 6
 12 0 l 2
 140 0 l 1
 140 8 l 1
 36 8 l 2
 36 56 l 6
 36 76 56 84 76 84 c 4
 104 84 140 92 140 120 c 6
 140 146 l 2
 140 174 104 186 76 186 c 0
 48 186 12 174 12 146 c 1
 36 146 l 1
 36 166 56 178 76 178 c 0
 96 178 116 166 116 146 c 2
 116 120 l 6
 116 100 96 92 76 92 c 4
EndSplineSet
EndChar

StartChar: comma
Encoding: 44 44 93
Width: 152
VWidth: 0
Flags: HW
HStem: 0 24<65 87>
VStem: 64 24<1 23>
LayerCount: 2
Fore
SplineSet
88 24 m 1
 88 -14 l 6
 88 -42 66 -50 50 -50 c 4
 50 -42 l 4
 56 -42 64 -34 64 -14 c 6
 64 24 l 1
 88 24 l 1
EndSplineSet
EndChar

StartChar: asciicircum
Encoding: 94 94 95
Width: 152
VWidth: 0
Flags: HW
HStem: 106 78
VStem: 36 78
LayerCount: 2
Fore
SplineSet
118 106 m 5
 96 106 l 5
 70 160 l 5
 48 106 l 5
 40 106 l 5
 72 184 l 5
 80 184 l 5
 118 106 l 5
EndSplineSet
EndChar

StartChar: grave
Encoding: 96 96 96
Width: 152
VWidth: 0
Flags: HW
LayerCount: 2
Fore
SplineSet
53 184 m 1
 75 184 l 1
 99 136 l 1
 77 136 l 1
 53 184 l 1
EndSplineSet
EndChar

StartChar: braceleft
Encoding: 123 123 97
Width: 152
VWidth: 0
Flags: HW
HStem: -2 8<105 128> 92 8<24 46> 178 8<105 128>
VStem: 64 24<18 79 110 166>
LayerCount: 2
Fore
SplineSet
24 100 m 5
 44 100 64 104 64 124 c 2
 64 152 l 2
 64 180 100 186 128 186 c 1
 128 178 l 1
 108 178 88 172 88 152 c 2
 88 124 l 2
 88 107 75 100 59 96 c 5
 75 92 88 81 88 64 c 2
 88 32 l 2
 88 12 108 6 128 6 c 1
 128 -2 l 1
 100 -2 64 4 64 32 c 2
 64 64 l 2
 64 84 44 92 24 92 c 5
 24 100 l 5
EndSplineSet
EndChar

StartChar: asciitilde
Encoding: 126 126 99
Width: 152
VWidth: 0
Flags: HW
HStem: -2 8<57 95> 92 8<54 98> 178 8<57 95>
VStem: 12 24<22 38 113 162> 116 24<22 79 146 162>
LayerCount: 2
Fore
SplineSet
90 84 m 2
 84 100 l 1
 80 110 72 114 50 114 c 0
 24 114 12 94 12 84 c 1
 36 84 l 1
 36 88 36 108 50 108 c 0
 58 108 60 104 62 100 c 2
 68 84 l 1
 72 74 80 70 102 70 c 0
 128 70 140 90 140 100 c 1
 116 100 l 1
 116 96 116 76 102 76 c 3
 94 76 92 80 90 84 c 2
EndSplineSet
EndChar

StartChar: copyright
Encoding: 169 169 100
Width: 152
VWidth: 0
Flags: HW
LayerCount: 2
Fore
SplineSet
108 56 m 0
 108 28 104 22 76 22 c 0
 48 22 44 28 44 56 c 0
 44 84 44 100 44 128 c 0
 44 156 48 162 76 162 c 0
 104 162 108 156 108 128 c 0
 84 128 l 0
 84 148 84 154 76 154 c 0
 68 154 68 148 68 128 c 0
 68 100 68 84 68 56 c 0
 68 36 68 30 76 30 c 0
 84 30 84 36 84 56 c 0
 108 56 l 0
EndSplineSet
Refer: 30 79 N 1 0 0 1 0 0 2
EndChar

StartChar: dollar
Encoding: 36 36 101
Width: 152
VWidth: 0
Flags: HW
HStem: 0 30<65 87> 22 8<52 64 88 96> 154 8<46 64 88 100>
VStem: 12 24<41 56 121 148> 64 24<0 22 162 184> 116 24<43 74 128 143>
CounterMasks: 1 1c
LayerCount: 2
Fore
SplineSet
64 184 m 1xbc
 88 184 l 1
 88 162 l 1
 114 160 140 152 140 128 c 1
 116 128 l 1
 116 148 96 154 76 154 c 0
 56 154 36 154 36 134 c 0
 36 118 52 112 76 104 c 0
 102 94 140 86 140 58 c 0
 140 34 114 24 88 22 c 1x7c
 88 0 l 1
 64 0 l 1xbc
 64 22 l 1x7c
 38 24 12 32 12 56 c 1
 36 56 l 1
 36 36 56 30 76 30 c 0
 96 30 116 40 116 58 c 0
 116 78 96 86 76 94 c 0
 50 102 12 114 12 134 c 0
 12 158 38 162 64 162 c 1
 64 184 l 1xbc
EndSplineSet
EndChar

StartChar: percent
Encoding: 37 37 102
Width: 152
VWidth: 0
Flags: HW
LayerCount: 2
Fore
SplineSet
116 34 m 0
 116 54 116 60 108 60 c 0
 100 60 100 54 100 34 c 0
 100 14 100 8 108 8 c 0
 116 8 116 14 116 34 c 0
140 34 m 0
 140 6 136 0 108 0 c 0
 80 0 76 6 76 34 c 0
 76 62 80 68 108 68 c 0
 136 68 140 62 140 34 c 0
52 150 m 4
 52 170 52 176 44 176 c 4
 36 176 36 170 36 150 c 4
 36 130 36 124 44 124 c 4
 52 124 52 130 52 150 c 4
76 150 m 4
 76 122 72 116 44 116 c 4
 16 116 12 122 12 150 c 4
 12 178 16 184 44 184 c 4
 72 184 76 178 76 150 c 4
EndSplineSet
Refer: 61 47 N 1 0 0 1 0 0 2
EndChar

StartChar: numbersign
Encoding: 35 35 103
Width: 152
VWidth: 0
Flags: HW
HStem: 0 42G<40 64 88 112> 0 42G<40 64 88 112> 56 8<12 40 64 88 112 140> 120 8<12 40 64 88 112 140> 144 40G<40 64 88 112>
VStem: 40 24<0 56 64 120 128 184> 88 24<0 56 64 120 128 184>
LayerCount: 2
Fore
SplineSet
88 184 m 5xbe
 112 184 l 5
 112 128 l 1
 140 128 l 1
 140 120 l 1
 112 120 l 1
 112 64 l 1
 140 64 l 1
 140 56 l 1
 112 56 l 1
 112 0 l 1
 88 0 l 1
 88 56 l 1
 64 56 l 1
 64 0 l 1
 40 0 l 1
 40 56 l 1
 12 56 l 1
 12 64 l 1
 40 64 l 1
 40 120 l 1
 12 120 l 1
 12 128 l 1
 40 128 l 1
 40 184 l 5
 64 184 l 5
 64 128 l 1
 88 128 l 1
 88 184 l 5xbe
64 64 m 1
 88 64 l 1
 88 120 l 1
 64 120 l 1
 64 64 l 1
EndSplineSet
EndChar

StartChar: circumflex
Encoding: 710 710 104
Width: 152
VWidth: 0
Flags: HW
HStem: 184 22
VStem: 40 78
LayerCount: 2
Fore
SplineSet
118 192 m 1
 96 192 l 1
 72 202 l 1
 48 192 l 1
 40 192 l 1
 72 206 l 1
 84 206 l 1
 118 192 l 1
EndSplineSet
EndChar

StartChar: uni02CA
Encoding: 714 714 109
AltUni2: 0000b4.ffffffff.0
Width: 152
VWidth: 0
Flags: HW
LayerCount: 2
Fore
SplineSet
59 206 m 5
 37 206 l 5
 13 192 l 5
 35 192 l 5
 59 206 l 5
EndSplineSet
EndChar

StartChar: uni02C9
Encoding: 713 713 112
Width: 152
VWidth: 0
Flags: HW
HStem: 192 8<12 140>
LayerCount: 2
Fore
SplineSet
12 192 m 5
 12 200 l 5
 140 200 l 5
 140 192 l 5
 12 192 l 5
EndSplineSet
EndChar

StartChar: tilde
Encoding: 732 732 115
Width: 152
VWidth: 0
Flags: HW
HStem: -2 8<57 95> 92 8<54 98> 178 8<57 95>
VStem: 12 24<22 38 113 162> 116 24<22 79 146 162>
LayerCount: 2
Fore
SplineSet
50 214 m 0
 24 214 12 202 12 192 c 1
 36 192 l 1
 36 196 36 208 50 208 c 0
 66 208 68 192 102 192 c 0
 128 192 140 204 140 214 c 1
 116 214 l 1
 116 210 116 198 102 198 c 3
 88 198 89 214 50 214 c 0
EndSplineSet
EndChar

StartChar: hungarumlaut
Encoding: 733 733 116
Width: 152
VWidth: 0
Flags: HW
LayerCount: 2
Fore
SplineSet
123 206 m 5
 101 206 l 5
 77 192 l 5
 99 192 l 5
 123 206 l 5
89 206 m 5
 67 206 l 5
 43 192 l 5
 65 192 l 5
 89 206 l 5
EndSplineSet
EndChar

StartChar: ring
Encoding: 730 730 137
Width: 152
VWidth: 0
Flags: HW
LayerCount: 2
Fore
SplineSet
64 204 m 0
 64 212 68 216 76 216 c 0
 84 216 88 212 88 204 c 0
 88 196 84 192 76 192 c 0
 68 192 64 196 64 204 c 0
70 204 m 0
 70 200 72 198 76 198 c 0
 80 198 82 200 82 204 c 4
 82 208 80 210 76 210 c 4
 72 210 70 208 70 204 c 0
EndSplineSet
EndChar

StartChar: uni0136
Encoding: 310 310 196
Width: 152
VWidth: 0
Flags: HW
LayerCount: 2
Fore
SplineSet
97 -8 m 5
 97 -14 l 2
 97 -42 75 -50 59 -50 c 0
 59 -42 l 0
 65 -42 73 -34 73 -14 c 2
 73 -8 l 5
 83 -8 92 -8 97 -8 c 5
EndSplineSet
Refer: 82 75 N 1 0 0 1 0 0 3
EndChar

StartChar: uni0137
Encoding: 311 311 197
Width: 152
VWidth: 0
Flags: HW
LayerCount: 2
Fore
SplineSet
97 -8 m 5
 97 -14 l 2
 97 -42 75 -50 59 -50 c 0
 59 -42 l 0
 65 -42 73 -34 73 -14 c 2
 73 -8 l 5
 97 -8 l 5
EndSplineSet
Refer: 63 107 N 1 0 0 1 0 0 3
EndChar

StartChar: uni013B
Encoding: 315 315 200
Width: 152
VWidth: 0
Flags: HW
LayerCount: 2
Fore
SplineSet
95 -8 m 5
 95 -14 l 2
 95 -42 73 -50 57 -50 c 0
 57 -42 l 0
 63 -42 71 -34 71 -14 c 2
 71 -8 l 5
 95 -8 l 5
EndSplineSet
Refer: 20 76 N 1 0 0 1 0 0 3
EndChar

StartChar: uni013C
Encoding: 316 316 201
Width: 152
VWidth: 0
Flags: HW
LayerCount: 2
Fore
SplineSet
118 -8 m 1
 118 -14 l 2
 118 -42 96 -50 80 -50 c 0
 80 -42 l 0
 86 -42 94 -34 94 -14 c 2
 94 -8 l 1
 118 -8 l 1
EndSplineSet
Refer: 15 108 N 1 0 0 1 0 0 3
EndChar

StartChar: ohorn
Encoding: 417 417 248
Width: 152
VWidth: 0
Flags: HW
LayerCount: 2
Fore
SplineSet
152 184 m 1
 152 164 l 2
 152 141 136 131 122 129 c 1
 133 123 140 115 140 102 c 0
 140 74 140 62 140 34 c 0
 140 6 104 -2 76 -2 c 0
 48 -2 12 6 12 34 c 0
 12 62 12 74 12 102 c 0
 12 130 48 138 76 138 c 0
 84 138 92 137 100 136 c 2
 114 136 l 2
 120 136 128 144 128 164 c 2
 128 184 l 1
 152 184 l 1
76 130 m 0
 56 130 36 122 36 102 c 0
 36 74 36 62 36 34 c 0
 36 14 56 6 76 6 c 0
 96 6 116 14 116 34 c 0
 116 62 116 74 116 102 c 0
 116 122 96 130 76 130 c 0
EndSplineSet
EndChar

StartChar: IJ
Encoding: 306 306 296
Width: 304
VWidth: 0
Flags: HW
LayerCount: 2
Fore
SplineSet
12 184 m 5
 36 184 l 5
 36 0 l 5
 12 0 l 5
 12 184 l 5
116 184 m 0
 140 184 l 0
 140 156 140 62 140 34 c 0
 140 6 120 -2 92 -2 c 0
 64 -2 44 6 44 34 c 0
 68 34 l 0
 68 14 78 6 92 6 c 0
 104 6 116 14 116 34 c 0
 116 62 116 156 116 184 c 0
EndSplineSet
EndChar

StartChar: ij
Encoding: 307 307 297
Width: 152
VWidth: 0
Flags: HW
LayerCount: 2
Fore
SplineSet
38 164 m 0
 38 172 42 176 50 176 c 0
 58 176 62 172 62 164 c 0
 62 156 58 152 50 152 c 0
 42 152 38 156 38 164 c 0
38 136 m 1
 62 136 l 1
 62 0 l 1
 38 0 l 1
 38 128 l 0
 38 128 l 0
 38 136 l 1
EndSplineSet
Refer: 25 106 N 1 0 0 1 18 0 2
EndChar

StartChar: Dcroat
Encoding: 272 272 298
AltUni2: 000189.ffffffff.0 0000d0.ffffffff.0
Width: 152
VWidth: 0
Flags: HW
HStem: 0 8<36 99> 176 8<36 99>
VStem: 12 24<8 176> 116 24<20 164>
LayerCount: 2
Fore
SplineSet
76 176 m 2
 36 176 l 1
 36 100 l 1
 76 100 l 1
 76 92 l 1
 36 92 l 1
 36 8 l 1
 76 8 l 2
 96 8 116 14 116 34 c 2
 116 150 l 2
 116 170 96 176 76 176 c 2
76 184 m 2
 104 184 140 178 140 150 c 2
 140 34 l 2
 140 6 104 0 76 0 c 2
 12 0 l 1
 12 92 l 1
 0 92 l 1
 0 100 l 1
 12 100 l 1
 12 184 l 1
 76 184 l 2
EndSplineSet
EndChar

StartChar: dcroat
Encoding: 273 273 299
Width: 152
VWidth: 0
Flags: HW
HStem: -2 8<54 98> 0 42G<116 140> 0 42G<116 140> 128 8<54 98> 144 40G<116 140>
VStem: 12 24<19 115> 116 24<0 4 19 115 130 184>
LayerCount: 2
Fore
SplineSet
116 34 m 2
 116 100 l 2
 116 120 96 128 76 128 c 0
 56 128 36 120 36 100 c 0
 36 72 36 62 36 34 c 0
 36 14 56 6 76 6 c 0
 96 6 116 14 116 34 c 2
76 -2 m 0
 48 -2 12 6 12 34 c 0
 12 62 12 72 12 100 c 0
 12 128 48 136 76 136 c 0
 90 136 104 134 116 130 c 1
 116 156 l 1
 76 156 l 1
 76 164 l 1
 116 164 l 1
 116 184 l 1
 140 184 l 1
 140 164 l 1
 152 164 l 1
 152 156 l 1
 140 156 l 1
 140 100 l 1
 140 34 l 1
 140 0 l 1
 116 0 l 1
 116 4 l 1
 104 0 90 -2 76 -2 c 0
EndSplineSet
EndChar

StartChar: Oslash
Encoding: 216 216 300
Width: 152
VWidth: 0
Flags: HW
HStem: -2 8<53 99> 178 8<53 99>
VStem: 12 24<18 166> 116 24<18 166>
LayerCount: 2
Fore
SplineSet
76 178 m 0
 56 178 36 172 36 152 c 2
 36 50 l 1
 114 162 l 1
 108 174 92 178 76 178 c 0
124 176 m 1
 130 184 l 1
 152 184 l 1
 138 164 l 2
 140 160 140 156 140 152 c 0
 140 124 140 60 140 32 c 0
 140 4 104 -2 76 -2 c 0
 60 -2 42 0 28 8 c 1
 22 0 l 1
 0 0 l 1
 14 20 l 2
 12 24 12 28 12 32 c 0
 12 60 12 124 12 152 c 0
 12 180 48 186 76 186 c 0
 92 186 110 184 124 176 c 1
38 22 m 1
 44 10 60 6 76 6 c 0
 96 6 116 12 116 32 c 2
 116 134 l 1
 38 22 l 1
EndSplineSet
EndChar

StartChar: degree
Encoding: 176 176 302
Width: 152
VWidth: 0
Flags: HW
LayerCount: 2
Fore
SplineSet
84 150 m 4
 84 170 84 176 76 176 c 4
 68 176 68 170 68 150 c 4
 68 130 68 124 76 124 c 4
 84 124 84 130 84 150 c 4
108 150 m 4
 108 122 104 116 76 116 c 4
 48 116 44 122 44 150 c 4
 44 178 48 184 76 184 c 4
 104 184 108 178 108 150 c 4
EndSplineSet
EndChar

StartChar: cent
Encoding: 162 162 304
Width: 152
VWidth: 0
Flags: HW
HStem: -2 8<53 99> 130 8<53 99>
VStem: 12 24<18 118> 116 24<18 32 104 118>
LayerCount: 2
Fore
SplineSet
64 184 m 1
 88 184 l 1
 88 162 l 1
 114 160 140 152 140 128 c 1
 116 128 l 1
 116 148 96 154 76 154 c 0
 56 154 36 148 36 128 c 0
 36 100 36 84 36 56 c 0
 36 36 56 30 76 30 c 0
 96 30 116 36 116 56 c 1
 140 56 l 1
 140 32 114 24 88 22 c 1
 88 0 l 1
 64 0 l 1
 64 22 l 1
 38 24 12 32 12 56 c 0
 12 84 12 100 12 128 c 0
 12 152 38 160 64 162 c 1
 64 184 l 1
EndSplineSet
EndChar

StartChar: Thorn
Encoding: 222 222 306
Width: 152
VWidth: 0
Flags: HW
HStem: 0 42G<12 36> 0 42G<12 36> 84 8<36 98> 176 8<36 98>
VStem: 12 24<0 84 92 176> 116 24<105 163>
LayerCount: 2
Fore
SplineSet
76 144 m 2
 104 144 140 136 140 108 c 2
 140 80 l 2
 140 52 104 44 76 44 c 2
 36 44 l 1
 36 0 l 1
 12 0 l 1
 12 48 l 1
 12 144 l 1
 12 184 l 1
 36 184 l 1
 36 144 l 1
 76 144 l 2
76 136 m 2
 36 136 l 1
 36 52 l 1
 76 52 l 2
 96 52 116 60 116 80 c 2
 116 108 l 2
 116 128 96 136 76 136 c 2
EndSplineSet
EndChar

StartChar: longs
Encoding: 383 383 307
Width: 152
VWidth: 0
Flags: HW
HStem: 0 42G<64 88> 0 42G<64 88> 128 8<36 64 88 116> 176 8<95 112>
VStem: 64 24<0 128 136 169> 116 24<156 174>
LayerCount: 2
Fore
SplineSet
64 0 m 5
 64 49 64 99 64 148 c 4
 64 176 86 184 102 184 c 4
 120 184 140 184 140 156 c 5
 116 156 l 5
 116 174 110 176 104 176 c 6
 102 176 l 6
 96 176 88 168 88 148 c 6
 88 136 l 6
 88 91 88 45 88 0 c 5
 64 0 l 5
EndSplineSet
EndChar

StartChar: paragraph
Encoding: 182 182 308
Width: 152
VWidth: 0
Flags: HW
HStem: 0 42G<12 36> 0 42G<12 36> 84 8<36 98> 176 8<36 98>
VStem: 12 24<0 84 92 176> 116 24<105 163>
LayerCount: 2
Fore
SplineSet
76 92 m 1
 76 176 l 1
 56 176 36 168 36 148 c 2
 36 120 l 2
 36 100 56 92 76 92 c 1
76 84 m 1
 48 84 12 92 12 120 c 2
 12 148 l 2
 12 176 48 184 76 184 c 0
 97 184 119 184 140 184 c 1
 140 123 140 61 140 0 c 1
 116 0 l 1
 116 84 l 1
 100 84 l 1
 100 0 l 1
 76 0 l 1
 76 84 l 1
100 176 m 1
 100 92 l 1
 116 92 l 1
 116 176 l 1
 100 176 l 1
EndSplineSet
EndChar

StartChar: mu
Encoding: 181 181 309
AltUni2: 0003bc.ffffffff.0
Width: 152
VWidth: 0
Flags: HW
HStem: 0 8<48 93>
VStem: 12 24<28 136>
LayerCount: 2
Fore
SplineSet
84 0 m 3
 62 0 36 12 36 12 c 0
 36 -50 l 4
 12 -50 l 4
 12 136 l 0
 36 136 l 0
 36 28 l 2
 36 28 40 20 48 16 c 0
 52 14 64 8 76 8 c 0
 88 8 94 8 104 12 c 0
 116 16 116 28 116 28 c 2
 116 136 l 0
 140 136 l 0
 140 136 140 72 140 32 c 0
 140 8 106 0 84 0 c 3
EndSplineSet
EndChar

StartChar: beta
Encoding: 946 946 310
Width: 152
VWidth: 0
Flags: HW
HStem: -2 8<53 99> 92 8<76 100> 178 8<53 99>
VStem: 12 24<18 32 152 166> 116 24<18 81 111 166>
LayerCount: 2
Fore
SplineSet
36 152 m 2
 36 -50 l 1
 12 -50 l 1
 12 152 l 2
 12 180 48 186 76 186 c 0
 104 186 140 180 140 152 c 2
 140 126 l 2
 140 108 126 100 108 96 c 1
 126 92 140 84 140 66 c 2
 140 34 l 2
 140 6 104 0 76 0 c 2
 64 0 l 1
 64 8 l 1
 76 8 l 2
 96 8 116 14 116 34 c 2
 116 66 l 2
 116 86 96 92 76 92 c 2
 64 92 l 1
 64 100 l 1
 76 100 l 2
 96 100 116 106 116 126 c 2
 116 152 l 2
 116 172 96 178 76 178 c 0
 56 178 36 172 36 152 c 2
EndSplineSet
EndChar

StartChar: Gamma
Encoding: 915 915 312
Width: 152
VWidth: 0
Flags: HW
LayerCount: 2
Fore
SplineSet
12 184 m 1
 140 184 l 1
 140 176 l 1
 36 176 l 1
 36 0 l 1
 12 0 l 1
 12 176 l 1
 12 184 l 1
EndSplineSet
EndChar

StartChar: uni0394
Encoding: 916 916 313
Width: 152
VWidth: 0
Flags: HW
LayerCount: 2
Fore
SplineSet
118 8 m 1
 66 152 l 1
 22 8 l 1
 118 8 l 1
124 0 m 1
 120 0 l 1
 20 0 l 1
 18 0 l 1
 12 0 l 1
 68 184 l 1
 76 184 l 1
 140 0 l 1
 124 0 l 1
EndSplineSet
EndChar

StartChar: Pi
Encoding: 928 928 314
Width: 152
VWidth: 0
Flags: HW
LayerCount: 2
Fore
SplineSet
12 184 m 1
 140 184 l 1
 140 176 l 1
 140 0 l 1
 116 0 l 1
 116 176 l 1
 36 176 l 1
 36 0 l 1
 12 0 l 1
 12 176 l 1
 12 184 l 1
EndSplineSet
EndChar

StartChar: yen
Encoding: 165 165 320
Width: 152
VWidth: 0
Flags: HW
HStem: 0 42G<66 90> 0 42G<66 90> 144 40G<12 58 107 140>
VStem: 66 24<0 94>
LayerCount: 2
Fore
SplineSet
12 184 m 5
 34 184 l 5
 82 104 l 5
 132 184 l 5
 140 184 l 5
 90 104 l 5
 140 104 l 5
 140 96 l 5
 90 96 l 5
 90 88 l 5
 140 88 l 5
 140 80 l 5
 90 80 l 5
 90 0 l 5
 66 0 l 5
 66 80 l 5
 12 80 l 5
 12 88 l 5
 66 88 l 5
 66 91 66 93 66 96 c 5
 12 96 l 5
 12 104 l 5
 60 104 l 5
 12 184 l 5
EndSplineSet
EndChar

StartChar: sterling
Encoding: 163 163 322
Width: 152
VWidth: 0
Flags: HW
HStem: -2 8<53 99> 178 8<53 99>
VStem: 12 24<18 166> 116 24<18 32 152 166>
LayerCount: 2
Fore
SplineSet
140 6 m 1
 36 6 l 1
 36 32 l 1
 36 92 l 1
 64 92 l 1
 64 98 l 1
 36 98 l 1
 36 152 l 2
 36 172 56 178 76 178 c 0
 96 178 116 172 116 152 c 1
 140 152 l 1
 140 180 104 186 76 186 c 0
 48 186 12 180 12 152 c 2
 12 98 l 1
 0 98 l 1
 0 92 l 1
 12 92 l 1
 12 0 l 1
 140 0 l 1
 140 6 l 1
EndSplineSet
EndChar

StartChar: brokenbar
Encoding: 166 166 323
Width: 256
VWidth: 0
Flags: HW
LayerCount: 2
Fore
SplineSet
64 92 m 1
 88 92 l 1
 88 -8 l 1
 64 -8 l 1
 64 92 l 1
64 192 m 1
 88 192 l 1
 88 100 l 5
 64 100 l 5
 64 192 l 1
EndSplineSet
EndChar

StartChar: AE
Encoding: 198 198 325
Width: 152
VWidth: 0
Flags: HW
HStem: 0 8<36 140> 88 8<36 124> 176 8<36 140>
VStem: 12 24<8 88 96 176>
LayerCount: 2
Fore
SplineSet
96 176 m 1
 96 96 l 1
 132 96 l 1
 132 88 l 1
 96 88 l 1
 96 8 l 1
 140 8 l 1
 140 0 l 1
 96 0 l 1
 76 0 l 1
 76 88 l 1
 48 88 l 1
 20 0 l 1
 12 0 l 1
 72 184 l 1
 80 184 l 1
 96 184 l 1
 140 184 l 1
 140 176 l 1
 96 176 l 1
76 174 m 1
 50 96 l 1
 76 96 l 1
 76 174 l 1
EndSplineSet
EndChar

StartChar: ampersand
Encoding: 38 38 326
Width: 152
VWidth: 0
Flags: W
HStem: 0 8<43.5999 76.8122 107.933 140> 92 8<43.1715 76.7959 109.535 140> 178 8<43.5999 80.6787>
VStem: 12 24<15.3732 84.0293 110.495 170.627> 84 24<158 175.603> 84 18<13.5 86.7001>
LayerCount: 2
Fore
SplineSet
36 64 m 0xf4
 36 36 36 64 36 36 c 0
 36 16 40 8 60 8 c 0
 80 8 84 16 84 36 c 0
 84 64 84 36 84 64 c 0
 84 84 80 92 60 92 c 0
 40 92 36 84 36 64 c 0xf4
12 64 m 0
 12 84 22 92 38 96 c 1
 23 101 12 112 12 128 c 2
 12 150 l 2
 12 178 32 186 60 186 c 0
 88 186 108 186 108 158 c 1
 84 158 l 1xf8
 84 178 80 178 60 178 c 0
 40 178 36 170 36 150 c 2
 36 128 l 2
 36 108 40 100 60 100 c 0
 75 100 87 97 96 91 c 1
 105 97 117 100 132 100 c 2
 140 100 l 1
 140 92 l 1
 126 92 l 2
 106 92 102 84 102 64 c 2
 102 35 l 2
 102 15 106 7 126 7 c 2
 140 7 l 1
 140 0 l 1
 132 0 l 2
 117 0 105 2 96 8 c 1
 87 2 75 0 60 0 c 0
 32 0 12 8 12 36 c 0
 12 64 12 36 12 64 c 0
EndSplineSet
Colour: ff0000
EndChar

